<svg width="20" height="20" viewBox="0 0 20 20" fill="none" xmlns="http://www.w3.org/2000/svg">
<path d="M9.99999 9.16667C10.9205 9.16667 11.6667 8.42047 11.6667 7.5C11.6667 6.57952 10.9205 5.83333 9.99999 5.83333C9.07952 5.83333 8.33333 6.57952 8.33333 7.5C8.33333 8.42047 9.07952 9.16667 9.99999 9.16667Z" stroke="#646973" stroke-width="1.5" stroke-linecap="round" stroke-linejoin="round"/>
<path d="M10 17.5C10 17.5 15.8333 13.4615 15.8333 8.26923C15.8333 6.73914 15.2188 5.27171 14.1248 4.18977C13.0308 3.10783 11.5471 2.5 10 2.5C8.45291 2.5 6.96918 3.10783 5.87522 4.18977C4.78125 5.27171 4.16667 6.73914 4.16667 8.26923C4.16667 13.4615 10 17.5 10 17.5Z" stroke="#646973" stroke-width="1.5" stroke-linecap="round" stroke-linejoin="round"/>
</svg>
